<?xml version="1.0" encoding="UTF-8"?>
<svg width="555px" height="168px" viewBox="0 0 555 168" version="1.1" xmlns="http://www.w3.org/2000/svg" xmlns:xlink="http://www.w3.org/1999/xlink">
    <!-- Generator: Sketch 41.2 (35397) - http://www.bohemiancoding.com/sketch -->
    <title>Group</title>
    <desc>Created with Sketch.</desc>
    <defs></defs>
    <g id="Page-1" stroke="none" stroke-width="1" fill="none" fill-rule="evenodd">
        <g id="kaka_logo" fill="#ED1C24">
            <g id="Group">
                <polygon id="Shape" points="132.548 165.865 76.502 165.865 56.664 123.459 50.961 123.459 50.961 165.865 0.867 165.865 0.867 0.211 50.961 0.211 50.961 86.758 56.664 86.758 71.791 51.296 127.834 51.296 100.805 104.365"></polygon>
                <path d="M246.372,122.469 C246.372,126.682 247.612,128.915 251.579,128.915 C253.81,128.915 256.043,128.173 258.524,126.682 L258.524,160.657 C251.828,165.371 243.644,167.6 233.228,167.6 C217.605,167.6 206.942,162.392 202.725,149.745 C199.501,161.895 187.6,167.849 170.983,167.849 C147.178,167.849 133.786,155.699 133.786,135.366 C133.786,113.045 151.393,100.646 179.661,100.646 C185.614,100.646 192.806,101.143 196.775,101.64 L196.775,88.744 C196.775,85.024 195.286,82.298 191.567,82.298 C187.102,82.298 185.366,87.506 185.366,95.439 L139.737,88.745 C141.473,64.444 158.831,48.324 193.303,48.324 C231.988,48.324 246.37,65.682 246.37,90.233 L246.37,122.469 L246.372,122.469 Z M196.776,120.484 C195.287,120.236 193.798,120.236 192.559,120.236 C184.128,120.236 180.657,124.205 180.657,129.66 C180.657,134.122 183.383,137.1 188.343,137.1 C191.816,137.1 196.776,135.858 196.776,129.66 L196.776,120.484 Z" id="Shape"></path>
                <polygon id="Shape" points="404.583 165.865 348.539 165.865 328.699 123.459 322.995 123.459 322.995 165.865 272.904 165.865 272.904 0.211 322.995 0.211 322.995 86.758 328.699 86.758 343.826 51.296 399.872 51.296 372.841 104.365"></polygon>
                <path d="M518.405,122.469 C518.405,126.682 519.644,128.915 523.613,128.915 C525.845,128.915 528.077,128.173 530.556,126.682 L530.556,160.657 C523.861,165.371 515.677,167.6 505.262,167.6 C489.637,167.6 478.976,162.392 474.761,149.745 C471.537,161.895 459.631,167.849 443.019,167.849 C419.209,167.849 405.821,155.699 405.821,135.366 C405.821,113.045 423.427,100.646 451.698,100.646 C457.649,100.646 464.842,101.143 468.808,101.64 L468.808,88.744 C468.808,85.024 467.32,82.298 463.599,82.298 C459.138,82.298 457.403,87.506 457.403,95.439 L411.772,88.745 C413.507,64.444 430.868,48.324 465.336,48.324 C504.021,48.324 518.404,65.682 518.404,90.233 L518.404,122.469 L518.405,122.469 Z M468.809,120.484 C467.321,120.236 465.834,120.236 464.593,120.236 C456.16,120.236 452.69,124.205 452.69,129.66 C452.69,134.122 455.419,137.1 460.378,137.1 C463.85,137.1 468.809,135.858 468.809,129.66 L468.809,120.484 Z" id="Shape"></path>
                <path d="M531.344,62.155 C531.344,58.74 532.418,55.995 534.572,53.915 C536.724,51.862 539.579,50.834 543.135,50.834 C546.691,50.834 549.532,51.862 551.656,53.915 C553.809,55.996 554.884,58.741 554.884,62.155 C554.884,65.523 553.81,68.223 551.656,70.249 C549.533,72.279 546.692,73.296 543.135,73.296 C539.578,73.296 536.724,72.279 534.572,70.249 C532.418,68.223 531.344,65.523 531.344,62.155 Z M533.925,62.155 C533.925,64.972 534.757,67.217 536.421,68.888 C538.113,70.586 540.352,71.434 543.135,71.434 C545.917,71.434 548.141,70.585 549.806,68.888 C551.468,67.217 552.303,64.972 552.303,62.155 C552.303,59.287 551.468,56.997 549.806,55.277 C548.141,53.556 545.917,52.699 543.135,52.699 C540.352,52.699 538.114,53.556 536.421,55.277 C534.757,56.997 533.925,59.287 533.925,62.155 Z M537.971,68.138 L537.971,55.743 L544.384,55.743 C545.847,55.743 547.023,56.076 547.911,56.744 C548.802,57.413 549.245,58.307 549.245,59.432 C549.245,60.1 549.031,60.708 548.601,61.259 C548.14,61.832 547.538,62.226 546.792,62.44 C547.336,62.75 547.766,63.132 548.084,63.587 C548.399,64.042 548.556,64.532 548.556,65.056 L548.687,67.419 C548.687,67.564 548.786,67.778 548.986,68.065 L549.031,68.137 L547.094,68.137 C546.894,67.851 546.792,67.598 546.792,67.384 L546.749,65.056 C546.749,64.459 546.433,63.97 545.802,63.587 C545.198,63.228 544.483,63.048 543.651,63.048 L539.82,63.048 L539.82,68.137 L537.971,68.137 L537.971,68.138 Z M539.82,61.616 L544.383,61.616 C545.3,61.616 546.03,61.413 546.577,61.008 C547.123,60.625 547.393,60.101 547.393,59.433 C547.393,58.741 547.122,58.179 546.577,57.75 C546.03,57.341 545.3,57.138 544.383,57.138 L539.82,57.138 L539.82,61.616 Z" id="Shape"></path>
            </g>
        </g>
    </g>
</svg>