<?xml version="1.0" encoding="utf-8"?>
<!-- Generator: Adobe Illustrator 16.0.0, SVG Export Plug-In . SVG Version: 6.00 Build 0)  -->
<!DOCTYPE svg PUBLIC "-//W3C//DTD SVG 1.1//EN" "http://www.w3.org/Graphics/SVG/1.1/DTD/svg11.dtd">
<svg version="1.1" id="Layer_1" xmlns="http://www.w3.org/2000/svg" xmlns:xlink="http://www.w3.org/1999/xlink" x="0px" y="0px"
	 width="841.89px" height="595.28px" viewBox="0 0 841.89 595.28" enable-background="new 0 0 841.89 595.28" xml:space="preserve">
<g>
	<path fill="#ED1C24" d="M283.548,318.865h-56.046l-19.838-42.406h-5.703v42.406h-50.094V153.211h50.094v86.547h5.703l15.127-35.462
		h56.043l-27.029,53.069L283.548,318.865z"/>
	<path fill="#ED1C24" d="M397.372,275.469c0,4.213,1.24,6.446,5.207,6.446c2.231,0,4.464-0.742,6.945-2.233v33.975
		c-6.696,4.714-14.88,6.943-25.296,6.943c-15.623,0-26.286-5.208-30.503-17.855c-3.224,12.15-15.125,18.104-31.742,18.104
		c-23.805,0-37.197-12.15-37.197-32.483c0-22.321,17.607-34.72,45.875-34.72c5.953,0,13.145,0.497,17.114,0.994v-12.896
		c0-3.72-1.489-6.446-5.208-6.446c-4.465,0-6.201,5.208-6.201,13.141l-45.629-6.694c1.736-24.301,19.094-40.421,53.566-40.421
		c38.685,0,53.067,17.358,53.067,41.909V275.469z M347.776,273.484c-1.489-0.248-2.978-0.248-4.217-0.248
		c-8.431,0-11.902,3.969-11.902,9.424c0,4.462,2.726,7.44,7.686,7.44c3.473,0,8.433-1.242,8.433-7.44V273.484z"/>
	<path fill="#ED1C24" d="M555.583,318.865h-56.044l-19.84-42.406h-5.704v42.406h-50.091V153.211h50.091v86.547h5.704l15.127-35.462
		h56.046l-27.031,53.069L555.583,318.865z"/>
	<path fill="#ED1C24" d="M669.405,275.469c0,4.213,1.239,6.446,5.208,6.446c2.232,0,4.464-0.742,6.943-2.233v33.975
		c-6.695,4.714-14.879,6.943-25.294,6.943c-15.625,0-26.286-5.208-30.501-17.855c-3.224,12.15-15.13,18.104-31.742,18.104
		c-23.81,0-37.198-12.15-37.198-32.483c0-22.321,17.606-34.72,45.877-34.72c5.951,0,13.144,0.497,17.11,0.994v-12.896
		c0-3.72-1.488-6.446-5.209-6.446c-4.461,0-6.196,5.208-6.196,13.141l-45.631-6.694c1.735-24.301,19.096-40.421,53.564-40.421
		c38.685,0,53.068,17.358,53.068,41.909V275.469z M619.809,273.484c-1.488-0.248-2.975-0.248-4.216-0.248
		c-8.433,0-11.903,3.969-11.903,9.424c0,4.462,2.729,7.44,7.688,7.44c3.472,0,8.431-1.242,8.431-7.44V273.484z"/>
	<path fill="#ED1C24" d="M682.344,215.155c0-3.415,1.074-6.16,3.228-8.24c2.152-2.053,5.007-3.081,8.563-3.081
		s6.397,1.028,8.521,3.081c2.153,2.081,3.228,4.826,3.228,8.24c0,3.368-1.074,6.068-3.228,8.094
		c-2.123,2.03-4.964,3.047-8.521,3.047s-6.411-1.017-8.563-3.047C683.418,221.223,682.344,218.523,682.344,215.155z
		 M684.925,215.155c0,2.817,0.832,5.062,2.496,6.733c1.692,1.698,3.931,2.546,6.714,2.546c2.782,0,5.006-0.849,6.671-2.546
		c1.662-1.671,2.497-3.916,2.497-6.733c0-2.868-0.835-5.158-2.497-6.878c-1.665-1.721-3.889-2.578-6.671-2.578
		c-2.783,0-5.021,0.857-6.714,2.578C685.757,209.997,684.925,212.287,684.925,215.155z M688.971,221.138v-12.395h6.413
		c1.463,0,2.639,0.333,3.527,1.001c0.891,0.669,1.334,1.563,1.334,2.688c0,0.668-0.214,1.276-0.644,1.827
		c-0.461,0.573-1.063,0.967-1.809,1.181c0.544,0.31,0.974,0.692,1.292,1.147c0.315,0.455,0.472,0.945,0.472,1.469l0.131,2.363
		c0,0.145,0.099,0.359,0.299,0.646l0.045,0.072h-1.937c-0.2-0.286-0.302-0.539-0.302-0.753l-0.043-2.328
		c0-0.597-0.316-1.086-0.947-1.469c-0.604-0.359-1.319-0.539-2.151-0.539h-3.831v5.089H688.971z M690.82,214.616h4.563
		c0.917,0,1.647-0.203,2.194-0.608c0.546-0.383,0.816-0.907,0.816-1.575c0-0.692-0.271-1.254-0.816-1.683
		c-0.547-0.409-1.277-0.612-2.194-0.612h-4.563V214.616z"/>
</g>
<g>
	<path fill="#2E3192" d="M1028.699,491.458c2.763,0.231,6.785-3.909,9.025-8.338c0.405-0.747,1.036-0.806,1.266,0
		c0.291,0.922,0.062,2.185-0.574,3.564c-0.807,1.729-5.004,6.5-9.602,6.386c-3.967-0.115-6.093-2.878-4.771-9.085
		c2.125-10.006,8.679-20.415,14.548-26.508c0.86-0.92,1.667-1.036,2.474-0.288c1.663,1.494,2.01,3.624,1.318,6.327
		c-1.781,7.068-8.22,13.969-13.337,17.305C1026.744,486.455,1026.113,491.229,1028.699,491.458z M1040.426,462.305
		c-0.744-0.455-4.995,5.927-8.964,13.284c-0.521,0.919-0.981,1.841-1.38,2.763C1037.954,471.966,1041.179,462.768,1040.426,462.305z
		"/>
	<path fill="#2E3192" d="M1057.333,470.125c0.52-0.744,0.98-0.86,1.38-0.344c0.865,1.036,1.326,3.506-0.055,6.383
		c-1.267,2.587-4.144,6.9-5.518,9.945c-1.441,3.223-1.497,5.695,0.453,5.58c2.363-0.116,5.525-4.026,7.535-7.993
		c0.285-0.518,0.691-0.576,0.92-0.06c0.232,0.517,0.232,1.958-0.52,3.566c-1.49,3.164-5.113,6.323-8.279,6.151
		c-3.102-0.17-4.713-2.011-4.713-4.712c-1.842,2.354-4.428,4.48-7.185,4.48c-5.349,0-6.444-7.298-1.671-14.257
		c4.657-6.784,9.201-9.37,12.077-9.37c2.472,0,3.62,1.895,3.506,4.138C1056.012,472.255,1056.699,471.047,1057.333,470.125z
		 M1052.735,472.484c-1.843-0.172-6.04,3.565-9.202,8.683c-3.047,4.942-3.791,10.002-1.551,10.062
		c2.356,0.057,5.348-3.623,8.281-8.684C1053.885,476.222,1054.4,472.658,1052.735,472.484z"/>
	<path fill="#2E3192" d="M1077.979,491.458c2.763,0.231,6.784-3.909,9.026-8.338c0.406-0.747,1.035-0.806,1.267,0
		c0.29,0.922,0.058,2.185-0.578,3.564c-0.807,1.729-5.001,6.5-9.601,6.386c-3.969-0.115-6.092-2.878-4.771-9.085
		c2.126-10.006,8.68-20.415,14.549-26.508c0.859-0.92,1.664-1.036,2.471-0.288c1.666,1.494,2.012,3.624,1.322,6.327
		c-1.783,7.068-8.221,13.969-13.337,17.305C1076.023,486.455,1075.393,491.229,1077.979,491.458z M1089.705,462.305
		c-0.742-0.455-4.996,5.927-8.963,13.284c-0.521,0.919-0.982,1.841-1.383,2.763C1087.235,471.966,1090.457,462.768,1089.705,462.305
		z"/>
	<path fill="#2E3192" d="M1086.029,484.789c1.441-4.197,5.234-10.979,7.36-13.972c0.52-0.692,0.921-0.861,1.38-0.348
		c0.863,0.921,1.321,3.393-0.055,6.269c-1.211,2.531-3.621,6.44-4.834,9.316c-1.379,3.334-1.265,5.574,0.576,5.459
		c2.586-0.112,5.748-3.907,7.475-7.877c0.291-0.517,0.69-0.458,0.922,0c0.459,0.922,0.285,2.129-0.402,3.566
		c-1.726,3.565-5.347,5.981-8.57,5.981C1085.514,493.185,1084.418,489.5,1086.029,484.789z M1098.854,469.781
		c-0.748,0.804-2.357,0.636-3.221-0.861c-0.918-1.551-0.633-3.275,0.287-4.254c0.92-0.979,2.588-0.289,3.332,1.261
		C1100.004,467.424,1099.597,468.979,1098.854,469.781z"/>
	<path fill="#2E3192" d="M1100.924,468.46c-0.576-0.806-0.229-1.205,0.631-1.15c1.611,0.06,3.221-0.055,4.771-0.23
		c1.782-3.161,3.391-5.862,4.368-7.129c0.521-0.746,1.096-0.691,1.38,0c0.637,1.61,0.637,3.506-0.743,6.497
		c2.24-0.06,3.101,0.977,3.56,1.724c0.405,0.691,0.176,1.094-0.688,1.094c-1.26-0.172-3.047,0-4.485,0.231
		c-2.24,3.851-5.515,9.427-7.703,14.258c-1.895,4.196-1.266,7.76,1.152,7.875c2.586,0.114,5.863-3.966,7.989-8.278
		c0.347-0.69,0.981-0.805,1.21,0c0.287,0.918,0,1.954-0.575,3.276c-0.751,1.672-4.542,6.728-9.14,6.558
		c-3.797-0.114-6.844-4.374-4.082-10.985c1.204-2.874,3.621-7.7,6.093-12.243C1102.705,469.956,1101.387,469.093,1100.924,468.46z"
		/>
	<path fill="#2E3192" d="M1109.894,484.789c1.438-4.197,5.234-10.979,7.36-13.972c0.516-0.692,0.921-0.861,1.381-0.348
		c0.859,0.921,1.322,3.393-0.061,6.269c-1.204,2.531-3.622,6.44-4.827,9.316c-1.382,3.334-1.267,5.574,0.576,5.459
		c2.584-0.112,5.748-3.907,7.474-7.877c0.285-0.517,0.689-0.458,0.916,0c0.459,0.922,0.289,2.129-0.4,3.566
		c-1.727,3.565-5.348,5.981-8.565,5.981C1109.373,493.185,1108.284,489.5,1109.894,484.789z M1122.713,469.781
		c-0.746,0.804-2.356,0.636-3.219-0.861c-0.92-1.551-0.629-3.275,0.286-4.254c0.92-0.979,2.591-0.289,3.338,1.261
		C1123.862,467.424,1123.463,468.979,1122.713,469.781z"/>
	<path fill="#2E3192" d="M1129.211,491.573c4.771,0.231,8.971-4.37,11.441-8.165c0.291-0.459,0.75-0.459,0.976,0.06
		c0.229,0.458,0.062,2.068-0.976,3.562c-2.418,3.506-6.84,6.154-11.268,6.208c-7.303,0.116-9.836-7.069-6.098-14.487
		c3.739-7.418,9.607-10.405,12.477-8.74c1.442,0.864,2.471,1.727,3.393,2.991c1.036,1.382,0.575,4.889-1.834,7.819
		c-2.823,3.447-6.676,4.944-10.697,1.667C1124.783,487.774,1126.164,491.401,1129.211,491.573z M1133.982,478.352
		c1.844-2.419,3.107-5.408,2.304-6.039c-1.212-0.979-5.979,2.471-8.687,7.935c-0.17,0.345-0.344,0.691-0.459,0.977
		C1129.961,483.007,1132.318,480.53,1133.982,478.352z M1135.881,463.288c1.557,0.8,3.565,2.297,5.062,3.506
		c0.401,0.345,0.401,0.63-0.061,0.805c-0.744,0.285-1.895,0.4-2.992-0.059c-1.436-0.577-4.137-2.243-6.148-3.393
		c-0.575-0.346-0.288-0.691,0.056-0.859C1132.662,462.827,1134.385,462.48,1135.881,463.288z"/>
	<path fill="#2E3192" d="M1154.572,471.505c0.689-0.458,1.145-0.575,1.55-0.114c1.092,1.208,2.472,3.74,0.806,5.635
		c-2.587,2.934-5.404,6.557-6.322,9.547c-0.922,2.988-0.231,5.232,1.434,5.285c2.242,0.115,5.003-3.444,6.846-7.589
		c0.229-0.457,0.567-0.515,0.799-0.054c0.289,0.629,0.347,2.009-0.285,3.56c-1.32,3.34-4.656,5.752-7.703,5.638
		c-4.137-0.174-5.809-3.965-4.367-8.278c1.26-3.796,4.596-7.88,6.898-10.52c-2.531,1.665-5.004,2.182-6.729,2.182
		c-2.187,4.025-7.705,12.19-8.794,17.421c-0.117,0.519-0.463,0.807-0.982,0.289c-1.666-1.727-1.666-4.37-0.115-7.303
		c1.326-2.53,5.177-7.934,7.305-10.981c-3.277-2.127,1.727-8.912,3.852-8.967c1.782-0.061,1.323,3.276-0.113,6.898
		C1150.488,473.923,1152.438,473.002,1154.572,471.505z"/>
	<path fill="#2E3192" d="M1166.014,491.573c4.771,0.231,8.97-4.37,11.441-8.165c0.291-0.459,0.751-0.459,0.976,0.06
		c0.231,0.458,0.06,2.068-0.976,3.562c-2.416,3.506-6.838,6.154-11.266,6.208c-7.305,0.116-9.838-7.069-6.099-14.487
		c3.735-7.418,9.604-10.405,12.477-8.74c1.44,0.864,2.472,1.727,3.394,2.991c1.033,1.382,0.572,4.889-1.838,7.819
		c-2.821,3.447-6.674,4.944-10.696,1.667C1161.586,487.774,1162.966,491.401,1166.014,491.573z M1170.785,478.352
		c1.843-2.419,3.108-5.408,2.301-6.039c-1.209-0.979-5.977,2.471-8.682,7.935c-0.172,0.345-0.348,0.691-0.463,0.977
		C1166.763,483.007,1169.12,480.53,1170.785,478.352z"/>
	<path fill="#2E3192" d="M1205.463,491.689c2.356-0.116,5.457-3.969,7.474-7.936c0.285-0.518,0.687-0.518,0.915-0.058
		c0.23,0.519,0.291,2.013-0.461,3.566c-1.549,3.159-5.11,6.207-8.273,6.035c-3.105-0.175-4.656-1.896-4.656-4.603
		c-1.843,2.302-4.428,4.428-7.129,4.428c-5.349,0-6.385-7.298-1.674-14.2c4.545-6.668,9.146-9.256,12.018-9.256
		c2.357,0,3.507,1.782,3.451,3.912c3.102-5.925,7.477-13.744,9.547-16.675c0.571-0.808,1.091-0.747,1.376,0
		c0.804,1.895,0.636,4.368-1.782,8.681c-2.76,4.946-8.279,14.432-11.15,20.524C1203.561,489.447,1203.506,491.805,1205.463,491.689z
		 M1195.457,481.224c-3.107,4.945-3.736,9.945-1.498,10.006c2.304,0.057,5.404-3.337,8.105-8.569
		c3.338-6.381,4.197-10.002,2.531-10.062C1202.816,472.543,1198.618,476.164,1195.457,481.224z"/>
	<path fill="#2E3192" d="M1219.551,491.573c4.774,0.231,8.965-4.37,11.442-8.165c0.284-0.459,0.745-0.459,0.976,0.06
		c0.23,0.458,0.054,2.068-0.976,3.562c-2.417,3.506-6.844,6.154-11.272,6.208c-7.299,0.116-9.832-7.069-6.092-14.487
		c3.735-7.418,9.6-10.405,12.476-8.74c1.438,0.864,2.472,1.727,3.394,2.991c1.035,1.382,0.573,4.889-1.842,7.819
		c-2.814,3.447-6.669,4.944-10.692,1.667C1215.123,487.774,1216.506,491.401,1219.551,491.573z M1224.325,478.352
		c1.835-2.419,3.101-5.408,2.296-6.039c-1.207-0.979-5.979,2.471-8.682,7.935c-0.175,0.345-0.344,0.691-0.461,0.977
		C1220.295,483.007,1222.652,480.53,1224.325,478.352z"/>
	<path fill="#2E3192" d="M1238.643,473.002c0.291-2.241,0.861-3.335,2.071-4.427c1.267-1.151,2.586-1.381,3.102-0.862
		c0.574,0.574,0.292,1.207-0.462,2.528c-0.23,0.344-0.398,0.688-0.629,1.092c-0.399,5.292,0.69,9.775,0.515,13.742
		c-0.116,2.244-0.515,4.657-2.585,6.039c3.851-1.439,6.268-4.891,7.705-7.994c0.289-0.632,0.863-0.46,1.096,0
		c0.23,0.517,0.168,2.014-0.807,3.796c-2.188,3.97-6.092,6.154-10.176,6.322c-3.336,0.116-6.561-0.744-8.511-4.311
		c-1.38-2.587-1.21-6.382,0.747-7.989c0.688-0.577,1.149-0.347,1.203,0.575c0.062,0.458,0.062,0.915,0.117,1.376
		C1234.391,479.673,1236.976,475.933,1238.643,473.002z M1232.549,485.994c0.86,3.338,2.531,5.695,4.427,5.12
		c2.642-0.807,1.782-9.832,1.554-14.432C1236.861,479.728,1234.735,482.89,1232.549,485.994z"/>
	<path fill="#2E3192" d="M1277.166,473.287c1.211,2.417-1.092,5.464-2.24,8.57c-0.23,0.688-0.461,0.86-1.208,0.457
		c-1.379-0.687-2.185-2.412-1.379-4.999c0.629-2.071,2.356-4.542,1.551-5.175c-0.977-0.808-5.288,2.871-7.874,8.106
		c-3.162,6.495-1.959,11.267,1.434,11.326c4.836,0.056,8.974-4.543,11.328-8.165c0.289-0.459,0.805-0.519,1.036,0.06
		c0.175,0.458-0.056,1.897-1.036,3.448c-2.187,3.392-6.725,6.207-11.098,6.269c-7.298,0.113-9.771-7.016-6.039-14.434
		c3.684-7.246,9.492-10.35,12.363-8.626C1275.561,471.047,1276.476,471.966,1277.166,473.287z"/>
	<path fill="#2E3192" d="M1292.12,493.238c-4.834,0-6.039-3.506-4.313-8.509c1.898-5.575,6.9-11.557,5.979-12.071
		c-0.804-0.462-7.066,3.449-10.405,8.909c-2.071,3.391-4.196,7.419-5.579,10.927c-0.229,0.515-0.629,0.629-0.974,0.232
		c-0.921-1.037-1.437-2.648-0.231-6.1c2.012-5.75,13.968-25.987,18.627-31.797c0.52-0.687,1.095-0.629,1.38,0.061
		c0.751,1.667,0.575,4.542-1.609,8.165c-1.377,2.3-4.43,6.955-6.899,10.807c2.361-2.297,5.347-4.195,6.899-4.022
		c1.955,0.232,3.735,3.104,2.246,6.038c-1.269,2.529-4.028,6.726-5.35,9.717c-1.435,3.333-1.15,6.034,0.975,5.919
		c2.358-0.112,5.521-4.251,7.305-7.932c0.229-0.518,0.808-0.518,1.037-0.06c0.284,0.631,0.284,1.843-0.576,3.565
		C1299.019,490.367,1295.513,493.238,1292.12,493.238z"/>
	<path fill="#2E3192" d="M1320.062,470.125c0.521-0.744,0.981-0.86,1.381-0.344c0.863,1.036,1.327,3.506-0.053,6.383
		c-1.269,2.587-4.146,6.9-5.521,9.945c-1.44,3.223-1.497,5.695,0.453,5.58c2.363-0.116,5.525-4.026,7.536-7.993
		c0.284-0.518,0.69-0.576,0.92-0.06c0.231,0.517,0.231,1.958-0.52,3.566c-1.489,3.164-5.112,6.323-8.28,6.151
		c-3.101-0.17-4.712-2.011-4.712-4.712c-1.841,2.354-4.428,4.48-7.185,4.48c-5.35,0-6.444-7.298-1.671-14.257
		c4.657-6.784,9.201-9.37,12.076-9.37c2.475,0,3.62,1.895,3.506,4.138C1318.742,472.255,1319.433,471.047,1320.062,470.125z
		 M1315.466,472.484c-1.844-0.172-6.039,3.565-9.201,8.683c-3.048,4.942-3.791,10.002-1.554,10.062
		c2.358,0.057,5.35-3.623,8.282-8.684C1316.614,476.222,1317.131,472.658,1315.466,472.484z"/>
	<path fill="#2E3192" d="M1326.22,468.46c-0.572-0.806-0.229-1.205,0.633-1.15c1.61,0.06,3.222-0.055,4.772-0.23
		c1.78-3.161,3.392-5.862,4.366-7.129c0.52-0.746,1.098-0.691,1.382,0c0.635,1.61,0.635,3.506-0.747,6.497
		c2.242-0.06,3.104,0.977,3.562,1.724c0.406,0.691,0.177,1.094-0.691,1.094c-1.26-0.172-3.045,0-4.48,0.231
		c-2.24,3.851-5.52,9.427-7.704,14.258c-1.896,4.196-1.266,7.76,1.15,7.875c2.584,0.114,5.863-3.966,7.989-8.278
		c0.347-0.69,0.98-0.805,1.21,0c0.285,0.918,0,1.954-0.573,3.276c-0.754,1.672-4.545,6.728-9.143,6.558
		c-3.796-0.114-6.844-4.374-4.083-10.985c1.206-2.874,3.625-7.7,6.097-12.243C1328.002,469.956,1326.681,469.093,1326.22,468.46z"/>
	<path fill="#2E3192" d="M1343.933,473.002c0.285-2.241,0.86-3.335,2.064-4.427c1.269-1.151,2.589-1.381,3.109-0.862
		c0.572,0.574,0.282,1.207-0.461,2.528c-0.23,0.344-0.406,0.688-0.637,1.092c-0.399,5.292,0.691,9.775,0.521,13.742
		c-0.114,2.244-0.521,4.657-2.585,6.039c3.85-1.439,6.262-4.891,7.704-7.994c0.282-0.632,0.859-0.46,1.09,0
		c0.229,0.517,0.175,2.014-0.808,3.796c-2.185,3.97-6.093,6.154-10.174,6.322c-3.332,0.116-6.554-0.744-8.511-4.311
		c-1.381-2.587-1.207-6.382,0.751-7.989c0.689-0.577,1.146-0.347,1.206,0.575c0.054,0.458,0.054,0.915,0.115,1.376
		C1339.673,479.673,1342.26,475.933,1343.933,473.002z M1337.832,485.994c0.866,3.338,2.533,5.695,4.428,5.12
		c2.647-0.807,1.787-9.832,1.556-14.432C1342.146,479.728,1340.021,482.89,1337.832,485.994z"/>
	<path fill="#2E3192" d="M1383.086,469.726c1.956,0.056,2.992,3.104,2.242,5.634c2.759-2.701,6.613-5.403,8.508-5.349
		c2.072,0.062,2.533,3.452,1.38,6.325c-1.032,2.587-3.85,6.382-5.288,9.259c-1.609,3.277-0.805,5.919,1.267,5.863
		c2.358-0.057,4.943-3.852,7.184-7.876c0.293-0.518,0.754-0.518,1.036-0.114c0.29,0.399,0.114,2.298-0.515,3.62
		c-1.608,3.279-5.293,6.15-8.623,6.15c-5.005,0-6.846-3.967-4.718-8.68c2.129-4.771,7.243-11.212,6.383-11.5
		c-0.461-0.171-2.419,0.458-6.153,4.195c-4.769,4.773-7.593,10.295-10.001,15.701c-0.347,0.688-0.806,0.858-1.326,0.283
		c-0.977-0.858-1.784-3.103-0.115-7.244c1.899-4.771,8.108-12.707,6.957-13.106c-0.688-0.289-3.507,1.266-7.185,5.288
		c-3.396,3.682-6.151,9.027-8.454,14.436c-0.229,0.512-0.574,0.743-1.09,0.283c-1.265-1.09-1.549-2.99-0.576-5.921
		c1.205-3.623,5.403-11.729,9.026-17.134c0.405-0.631,0.864-0.575,1.212,0c0.974,1.609,0.8,3.853-0.062,6.151
		C1376.706,473.059,1381.02,469.667,1383.086,469.726z"/>
	<path fill="#2E3192" d="M1418.274,470.125c0.523-0.744,0.983-0.86,1.383-0.344c0.866,1.036,1.327,3.506-0.056,6.383
		c-1.266,2.587-4.143,6.9-5.518,9.945c-1.44,3.223-1.497,5.695,0.456,5.58c2.36-0.116,5.522-4.026,7.536-7.993
		c0.282-0.518,0.688-0.576,0.921-0.06c0.229,0.517,0.229,1.958-0.523,3.566c-1.489,3.164-5.11,6.323-8.278,6.151
		c-3.103-0.17-4.714-2.011-4.714-4.712c-1.841,2.354-4.428,4.48-7.184,4.48c-5.35,0-6.443-7.298-1.672-14.257
		c4.657-6.784,9.2-9.37,12.078-9.37c2.47,0,3.621,1.895,3.506,4.138C1416.956,472.255,1417.648,471.047,1418.274,470.125z
		 M1413.68,472.484c-1.841-0.172-6.039,3.565-9.199,8.683c-3.048,4.942-3.793,10.002-1.553,10.062
		c2.355,0.057,5.349-3.623,8.279-8.684C1414.83,476.222,1415.345,472.658,1413.68,472.484z"/>
	<path fill="#2E3192" d="M1426.277,491.458c2.757,0.231,6.782-3.909,9.025-8.338c0.399-0.747,1.036-0.806,1.266,0
		c0.285,0.922,0.056,2.185-0.576,3.564c-0.804,1.729-5.002,6.5-9.601,6.386c-3.967-0.115-6.098-2.878-4.772-9.085
		c2.127-10.006,8.681-20.415,14.544-26.508c0.866-0.92,1.665-1.036,2.47-0.288c1.673,1.494,2.019,3.624,1.326,6.327
		c-1.784,7.068-8.224,13.969-13.341,17.305C1424.32,486.455,1423.686,491.229,1426.277,491.458z M1438.004,462.305
		c-0.746-0.455-5.004,5.927-8.97,13.284c-0.517,0.919-0.975,1.841-1.38,2.763C1435.532,471.966,1438.75,462.768,1438.004,462.305z"
		/>
	<path fill="#2E3192" d="M1454.739,491.573c4.773,0.231,8.966-4.37,11.441-8.165c0.286-0.459,0.746-0.459,0.975,0.06
		c0.232,0.458,0.056,2.068-0.975,3.562c-2.415,3.506-6.842,6.154-11.27,6.208c-7.304,0.116-9.832-7.069-6.097-14.487
		c3.737-7.418,9.603-10.405,12.478-8.74c1.437,0.864,2.474,1.727,3.392,2.991c1.036,1.382,0.578,4.889-1.84,7.819
		c-2.816,3.447-6.668,4.944-10.69,1.667C1450.312,487.774,1451.691,491.401,1454.739,491.573z M1459.513,478.352
		c1.834-2.419,3.101-5.408,2.295-6.039c-1.204-0.979-5.979,2.471-8.678,7.935c-0.177,0.345-0.347,0.691-0.464,0.977
		C1455.484,483.007,1457.842,480.53,1459.513,478.352z M1466.582,464.262c-2.071,0.979-5.119,2.648-6.616,3.107
		c-1.26,0.399-2.354,0.344-2.986,0.055c-0.46-0.229-0.52-0.514,0.056-0.919c1.556-1.092,4.028-2.703,5.464-3.334
		c1.551-0.69,3.221-0.344,4.083,0.17C1467.041,463.632,1467.155,463.974,1466.582,464.262z"/>
	<path fill="#2E3192" d="M1470.555,491.458c2.755,0.231,6.782-3.909,9.024-8.338c0.399-0.747,1.036-0.806,1.267,0
		c0.284,0.922,0.055,2.185-0.575,3.564c-0.806,1.729-5.003,6.5-9.6,6.386c-3.968-0.115-6.101-2.878-4.775-9.085
		c2.127-10.006,8.68-20.415,14.543-26.508c0.868-0.92,1.669-1.036,2.472-0.288c1.671,1.494,2.019,3.624,1.327,6.327
		c-1.786,7.068-8.226,13.969-13.343,17.305C1468.597,486.455,1467.963,491.229,1470.555,491.458z M1482.28,462.305
		c-0.744-0.455-5.003,5.927-8.971,13.284c-0.515,0.919-0.974,1.841-1.379,2.763C1479.81,471.966,1483.025,462.768,1482.28,462.305z"
		/>
	<path fill="#2E3192" d="M1486.364,491.573c4.772,0.231,8.97-4.37,11.441-8.165c0.291-0.459,0.75-0.459,0.976,0.06
		c0.229,0.458,0.059,2.068-0.976,3.562c-2.416,3.506-6.838,6.154-11.266,6.208c-7.305,0.116-9.838-7.069-6.102-14.487
		c3.738-7.418,9.607-10.405,12.478-8.74c1.441,0.864,2.474,1.727,3.396,2.991c1.032,1.382,0.573,4.889-1.837,7.819
		c-2.825,3.447-6.675,4.944-10.697,1.667C1481.936,487.774,1483.316,491.401,1486.364,491.573z M1491.137,478.352
		c1.841-2.419,3.106-5.408,2.303-6.039c-1.212-0.979-5.98,2.471-8.688,7.935c-0.17,0.345-0.345,0.691-0.459,0.977
		C1487.114,483.007,1489.471,480.53,1491.137,478.352z"/>
	<path fill="#2E3192" d="M1516.206,469.781c0.637-0.631,0.975-0.517,1.092,0.229c0.174,1.208-0.517,2.704-2.354,5.001
		c-2.876,3.625-8.106,9.142-13.625,17.883c-0.292,0.46-0.575,0.864-1.152,0.575c-2.24-1.09-3.045-2.24-2.877-5.288
		c0.23-4.028,1.782-12.249,3.737-18.226c0.232-0.633,0.69-0.863,1.153-0.46c1.895,1.612,2.185,3.736,1.381,7.242
		c-1.037,4.429-2.188,7.645-2.992,13.913C1504.649,483.926,1512.301,473.81,1516.206,469.781z"/>
	<path fill="#2E3192" d="M1521.499,491.573c4.772,0.231,8.965-4.37,11.442-8.165c0.284-0.459,0.747-0.459,0.976,0.06
		c0.23,0.458,0.055,2.068-0.976,3.562c-2.417,3.506-6.844,6.154-11.271,6.208c-7.3,0.116-9.832-7.069-6.093-14.487
		c3.737-7.418,9.601-10.405,12.478-8.74c1.437,0.864,2.47,1.727,3.392,2.991c1.036,1.382,0.575,4.889-1.841,7.819
		c-2.818,3.447-6.67,4.944-10.693,1.667C1517.071,487.774,1518.454,491.401,1521.499,491.573z M1526.271,478.352
		c1.84-2.419,3.104-5.408,2.298-6.039c-1.207-0.979-5.978,2.471-8.68,7.935c-0.176,0.345-0.346,0.691-0.46,0.977
		C1522.245,483.007,1524.601,480.53,1526.271,478.352z M1533.341,464.262c-2.07,0.979-5.116,2.648-6.612,3.107
		c-1.26,0.399-2.357,0.344-2.986,0.055c-0.461-0.229-0.521-0.514,0.055-0.919c1.557-1.092,4.026-2.703,5.464-3.334
		c1.551-0.69,3.222-0.344,4.08,0.17C1533.803,463.632,1533.917,463.974,1533.341,464.262z"/>
	<path fill="#2E3192" d="M1540.877,473.002c0.29-2.241,0.86-3.335,2.072-4.427c1.266-1.151,2.587-1.381,3.1-0.862
		c0.577,0.574,0.292,1.207-0.459,2.528c-0.23,0.344-0.4,0.688-0.632,1.092c-0.399,5.292,0.692,9.775,0.517,13.742
		c-0.115,2.244-0.517,4.657-2.587,6.039c3.854-1.439,6.269-4.891,7.704-7.994c0.291-0.632,0.866-0.46,1.098,0
		c0.229,0.517,0.168,2.014-0.807,3.796c-2.188,3.97-6.094,6.154-10.177,6.322c-3.338,0.116-6.559-0.744-8.51-4.311
		c-1.381-2.587-1.211-6.382,0.745-7.989c0.689-0.577,1.153-0.347,1.206,0.575c0.062,0.458,0.062,0.915,0.115,1.376
		C1536.624,479.673,1539.209,475.933,1540.877,473.002z M1534.783,485.994c0.859,3.338,2.532,5.695,4.426,5.12
		c2.643-0.807,1.782-9.832,1.551-14.432C1539.095,479.728,1536.969,482.89,1534.783,485.994z"/>
</g>
<g>
	<path fill-rule="evenodd" clip-rule="evenodd" fill="#2B3990" d="M1429.387,280.412c0.4,0.702,0.612,1.08-0.286,1.194
		c-0.349,0.048-0.619,0.597-0.965,0.876c-0.221,0.177-0.509,0.38-0.765,0.382c-0.188,0-0.522-0.306-0.53-0.485
		c-0.007-0.261,0.144-0.647,0.356-0.781C1427.88,281.164,1428.62,280.816,1429.387,280.412z"/>
	<path fill-rule="evenodd" clip-rule="evenodd" fill="#2E3192" d="M1437.268,306.29c0.445,0.224,1.129,0.341,1.38,0.732
		c0.922,1.454,2.181,2.737,2.546,4.493c0.171,0.805,0.621,1.365,1.236,1.833c0.283,0.218,0.589,0.395,0.878,0.602
		c1.004,0.72,2.097,1.345,2.98,2.195c0.953,0.91,1.834,1.958,1.282,3.519c-0.318,0.897-0.455,1.855-0.694,2.786
		c-0.23,0.886-0.764,1.56-1.619,1.864c-1.019,0.357-2.059,0.725-3.115,0.889c-2.111,0.324-3.923,1.221-5.651,2.425
		c-1.08,0.745-2.267,1.304-3.617,1.497c-1.482,0.209-2.796-0.096-3.892-1.08c-1.664-1.496-3.612-2.318-5.779-2.757
		c-0.831-0.171-1.647-0.509-2.405-0.899c-1.236-0.645-1.853-2.609-1.381-4.234c0.685-2.367,2.052-4.209,4.295-5.332
		c2.532-1.267,4.602-3.201,6.889-4.822c1.644-1.168,3.38-2.215,5.105-3.262C1436.121,306.489,1436.661,306.457,1437.268,306.29z"/>
	<path fill-rule="evenodd" clip-rule="evenodd" fill="#2E3192" d="M1436.695,299.44c-0.207-2.258-0.419-4.513-0.622-6.77
		c-0.145-1.594,0.262-3.081,1.086-4.409c1.112-1.785,4.346-2.229,5.974-0.839c1.944,1.657,3.214,3.75,3.645,6.29
		c0.074,0.454,0.003,0.979-0.153,1.414c-0.591,1.63-1.188,3.253-1.899,4.833c-0.203,0.456-0.727,0.86-1.205,1.079
		c-1.146,0.521-2.06,1.215-2.809,2.277c-0.854,1.22-2.007,1.119-2.933-0.066c-0.865-1.107-1.375-2.352-1.288-3.791
		C1436.562,299.453,1436.628,299.447,1436.695,299.44z"/>
	<path fill-rule="evenodd" clip-rule="evenodd" fill="#2E3192" d="M1424.273,289.729c-0.049-1.736,0.324-2.875,1.036-3.902
		c1.205-1.744,2.896-2.834,4.918-3.314c1.801-0.426,3.451,0.663,4.203,2.473c0.729,1.755,0.701,3.561,0.416,5.37
		c-0.327,2.035-0.749,4.06-1.191,6.075c-0.095,0.417-0.422,0.798-0.707,1.144c-0.304,0.363-0.696,0.662-1.035,0.999
		c-0.625,0.622-1.261,0.779-2.066,0.375c-0.97-0.481-1.738-1.169-2.241-2.176c-0.719-1.443-1.474-2.872-2.327-4.239
		C1424.638,291.506,1424.277,290.447,1424.273,289.729z"/>
	<path fill-rule="evenodd" clip-rule="evenodd" fill="#2E3192" d="M1444.879,308.426c-0.039-3.971,2.169-6.172,4.812-8.092
		c1.17-0.848,2.459-1.408,3.949-1.33c1.394,0.077,2.215,0.891,2.549,2.267c0.563,2.338-0.217,4.421-1.039,6.53
		c-0.656,1.688-1.953,2.85-3.153,4.088c-0.386,0.4-1.054,0.646-1.628,0.735c-1.717,0.269-3.38-0.105-4.465-1.476
		C1445.265,310.345,1445.128,309.137,1444.879,308.426z"/>
	<path fill-rule="evenodd" clip-rule="evenodd" fill="#2E3192" d="M1420.014,309.248c-0.674,0-1.353,0.058-2.021-0.012
		c-1.706-0.182-2.782-1.352-3.753-2.592c-0.604-0.77-0.352-1.701-0.154-2.564c0.561-2.4,1.857-4.283,4.123-5.313
		c2.739-1.25,6.171,0.37,7.177,3.219c0.243,0.693,0.643,1.375,1.124,1.938c1.074,1.266,0.724,3.502-0.839,4.11
		c-1.256,0.489-2.615,0.724-3.935,1.03c-0.559,0.133-1.145,0.158-1.714,0.231C1420.018,309.279,1420.018,309.265,1420.014,309.248z"
		/>
	<path fill-rule="evenodd" clip-rule="evenodd" fill="#2E3192" d="M1420.378,296.847c-0.542,0.459-0.968,0.846-1.427,1.188
		c-0.143,0.111-0.505,0.18-0.56,0.111c-0.221-0.298-0.364-0.656-0.539-0.991c0.46-0.233,0.896-0.548,1.383-0.676
		C1419.681,296.364,1420.19,296.43,1420.378,296.847z"/>
	<path fill-rule="evenodd" clip-rule="evenodd" fill="#2E3192" d="M1453.565,298.088c-0.459-0.727-0.276-1.121,0.448-1.185
		c0.275-0.022,0.559-0.097,0.827-0.062c0.271,0.032,0.665,0.089,0.764,0.271c0.192,0.357,0.509,0.819-0.071,1.205
		C1454.941,297.908,1454.335,297.413,1453.565,298.088z"/>
	<path fill-rule="evenodd" clip-rule="evenodd" fill="#2B3990" d="M1442.991,285.607c-0.509-0.162-0.947-0.265-1.358-0.44
		c-0.311-0.138-0.719-0.347-0.34-0.772c0.463-0.521,0.96-0.269,1.413,0.058C1443.108,284.749,1443.483,285.079,1442.991,285.607z"/>
</g>
<g>
	<path fill-rule="evenodd" clip-rule="evenodd" fill="#2E3192" d="M1082.369,305.631c-0.463,0.186-1.165,0.238-1.451,0.608
		c-1.06,1.376-2.446,2.55-2.978,4.278c-0.242,0.793-0.745,1.316-1.412,1.732c-0.299,0.185-0.627,0.34-0.936,0.52
		c-1.074,0.629-2.231,1.156-3.198,1.928c-1.04,0.826-2.021,1.795-1.614,3.414c0.234,0.932,0.29,1.908,0.44,2.863
		c0.146,0.914,0.62,1.64,1.452,2.025c0.994,0.458,1.999,0.92,3.05,1.18c2.089,0.522,3.824,1.59,5.447,2.958
		c1.019,0.854,2.161,1.522,3.501,1.841c1.468,0.35,2.815,0.166,4.008-0.723c1.811-1.348,3.845-1.992,6.062-2.232
		c0.85-0.092,1.702-0.359,2.499-0.684c1.303-0.531,2.106-2.446,1.784-4.121c-0.47-2.443-1.674-4.421-3.824-5.754
		c-2.426-1.512-4.323-3.646-6.472-5.486c-1.544-1.325-3.191-2.537-4.828-3.752C1083.51,305.939,1082.965,305.854,1082.369,305.631z"
		/>
	<path fill-rule="evenodd" clip-rule="evenodd" fill="#2E3192" d="M1083.585,298.804c0.417-2.247,0.838-4.495,1.249-6.745
		c0.294-1.584,0.026-3.12-0.683-4.529c-0.952-1.895-4.154-2.64-5.921-1.397c-2.107,1.486-3.579,3.469-4.245,5.981
		c-0.117,0.451-0.094,0.982,0.024,1.436c0.438,1.69,0.892,3.38,1.459,5.03c0.162,0.475,0.648,0.936,1.106,1.195
		c1.109,0.635,1.959,1.412,2.612,2.553c0.745,1.303,1.911,1.309,2.954,0.205c0.973-1.034,1.599-2.234,1.645-3.688
		C1083.717,298.831,1083.65,298.818,1083.585,298.804z"/>
	<path fill-rule="evenodd" clip-rule="evenodd" fill="#2E3192" d="M1096.969,290.2c0.206-1.738-0.06-2.915-0.682-4.016
		c-1.052-1.865-2.646-3.118-4.637-3.785c-1.769-0.596-3.526,0.344-4.451,2.093c-0.896,1.697-1.034,3.515-0.913,5.356
		c0.139,2.077,0.377,4.151,0.633,6.216c0.052,0.425,0.346,0.84,0.603,1.212c0.276,0.398,0.635,0.729,0.946,1.1
		c0.571,0.687,1.195,0.901,2.042,0.573c1.015-0.396,1.855-1.015,2.454-1.983c0.855-1.382,1.747-2.747,2.73-4.042
		C1096.431,291.951,1096.893,290.919,1096.969,290.2z"/>
	<path fill-rule="evenodd" clip-rule="evenodd" fill="#2E3192" d="M1074.527,307.072c0.409-3.986-1.608-6.406-4.087-8.58
		c-1.094-0.958-2.338-1.64-3.84-1.701c-1.403-0.051-2.312,0.692-2.771,2.041c-0.78,2.298-0.193,4.462,0.441,6.661
		c0.5,1.752,1.695,3.043,2.784,4.396c0.351,0.441,0.999,0.748,1.566,0.891c1.699,0.431,3.406,0.207,4.623-1.063
		C1073.963,308.963,1074.211,307.764,1074.527,307.072z"/>
	<path fill-rule="evenodd" clip-rule="evenodd" fill="#2E3192" d="M1099.432,310.204c0.681,0.067,1.356,0.188,2.032,0.18
		c1.728-0.023,2.922-1.103,4.009-2.259c0.68-0.717,0.514-1.676,0.39-2.562c-0.334-2.465-1.463-4.479-3.646-5.721
		c-2.637-1.51-6.234-0.199-7.507,2.568c-0.309,0.674-0.775,1.324-1.309,1.843c-1.197,1.169-1.049,3.446,0.462,4.208
		c1.216,0.607,2.56,0.969,3.855,1.401c0.554,0.182,1.135,0.265,1.703,0.392C1099.424,310.238,1099.429,310.221,1099.432,310.204z"/>
	<path fill-rule="evenodd" clip-rule="evenodd" fill="#3D44AC" d="M1091.539,279.643c-0.468,0.668-0.717,1.027,0.175,1.224
		c0.349,0.08,0.57,0.661,0.89,0.968c0.205,0.201,0.472,0.431,0.732,0.458c0.186,0.018,0.556-0.258,0.575-0.438
		c0.038-0.263-0.08-0.659-0.284-0.815C1092.981,280.538,1092.27,280.121,1091.539,279.643z"/>
	<path fill-rule="evenodd" clip-rule="evenodd" fill="#2E3192" d="M1100.218,297.71c0.505,0.509,0.893,0.942,1.324,1.327
		c0.134,0.123,0.49,0.234,0.551,0.164c0.25-0.279,0.427-0.623,0.634-0.945c-0.44-0.276-0.85-0.634-1.328-0.804
		C1100.961,297.292,1100.443,297.312,1100.218,297.71z"/>
	<path fill-rule="evenodd" clip-rule="evenodd" fill="#2E3192" d="M1068.411,296.719c0.527-0.688,0.38-1.102-0.338-1.232
		c-0.275-0.05-0.552-0.15-0.825-0.142c-0.277,0.004-0.68,0.03-0.793,0.205c-0.227,0.337-0.587,0.776-0.042,1.215
		C1067.046,296.41,1067.699,295.967,1068.411,296.719z"/>
	<path fill-rule="evenodd" clip-rule="evenodd" fill="#3D44AC" d="M1079.631,285.215c0.524-0.116,0.979-0.178,1.407-0.317
		c0.322-0.11,0.755-0.282,0.415-0.741c-0.417-0.57-0.943-0.359-1.428-0.077C1079.593,284.342,1079.188,284.642,1079.631,285.215z"/>
</g>
<g>
	<path fill="#2E3192" d="M1164.147,313.105c-1.453,3.486-4.938,6.045-8.132,5.928c-4.419-0.174-6.159-4.184-4.709-8.832
		c1.218-3.889,4.823-8.25,7.263-11.037c-2.554,1.629-5.053,2.207-6.973,2.207c-3.018,7.785-8.658,17.43-14.353,17.254
		c-4.003-0.115-7.435-3.369-7.374-11.152c0-1.105,0.176-1.336,1.275-1.688c7.148-2.322,11.039-7.375,10.167-8.94
		c-0.581-0.992-3.134-0.41-6.328,2.029c-4.358,3.311-6.972,8.362-11.503,19.055c-0.234,0.52-0.582,0.641-0.934,0.234
		c-0.871-1.105-1.1-2.908-0.061-6.393c1.573-5.344,11.158-24.401,16.326-31.489c0.525-0.756,1.166-0.695,1.512-0.055
		c0.872,1.682,0.758,4.004-1.627,8.361c-1.338,2.385-3.6,6.334-5.167,9.125c1.798-1.744,3.483-2.791,5.052-3.256
		c2.267-0.639,3.66,0.176,4.824,2.615c1.044,2.208,0.93,4.706-1.223,6.739c-2.035,1.92-4.531,3.6-8.074,4.762
		c0.229,4.766,1.973,8.252,3.776,8.309c2.963,0.117,8.539-7.551,11.441-15.801c-4.646-1.742,0.817-9.586,3.196-9.76
		c1.862-0.117,1.397,3.486,0.119,7.377c2.033-0.289,4.121-1.275,6.391-2.787c0.695-0.582,1.215-0.695,1.627-0.117
		c1.161,1.219,2.555,3.893,0.873,5.868c-2.735,3.137-5.755,7.203-6.684,10.109c-0.99,3.191-0.288,5.52,1.455,5.578
		c2.437,0.115,5.397-3.662,7.259-8.018c0.233-0.467,0.638-0.525,0.874,0C1164.726,310.027,1164.843,311.426,1164.147,313.105z"/>
	<path fill="#2E3192" d="M1183.779,295.621c0.521-0.758,0.988-0.873,1.393-0.348c0.87,1.041,1.337,3.543-0.056,6.446
		c-1.282,2.613-4.186,6.975-5.578,10.053c-1.453,3.254-1.512,5.752,0.467,5.637c2.379-0.117,5.572-4.068,7.61-8.076
		c0.292-0.525,0.698-0.582,0.928-0.061c0.235,0.525,0.235,1.979-0.52,3.604c-1.515,3.195-5.174,6.391-8.37,6.215
		c-3.133-0.176-4.762-2.031-4.762-4.762c-1.857,2.383-4.476,4.531-7.259,4.531c-5.405,0-6.512-7.379-1.69-14.408
		c4.709-6.856,9.297-9.469,12.198-9.469c2.499,0,3.661,1.916,3.547,4.182C1182.444,297.769,1183.139,296.552,1183.779,295.621z
		 M1179.133,298.003c-1.864-0.176-6.099,3.6-9.298,8.772c-3.076,4.996-3.832,10.107-1.568,10.168
		c2.385,0.057,5.402-3.662,8.368-8.773C1180.296,301.779,1180.815,298.179,1179.133,298.003z"/>
	<path fill="#2E3192" d="M1197.776,314.91c-0.811-1.047-4.357-0.699-7.26,1.334c-0.408,0.291-0.812,0.408-0.987-0.059
		c-0.872-2.498,0.466-4.299,2.498-5.461c8.712-4.992,12.433-10.688,10.86-12.667c-1.566-1.973-9.469,2.151-13.939,7.727
		c-0.353,0.467-0.757,0.291-0.873-0.172c-0.463-1.51,0.23-4.186,2.387-6.273c2.322-2.266,5.633-3.895,8.42-4.241
		c2.615-0.352,4.297,0,5.75,2.09c1.398,1.975,1.571,4.649-0.23,7.725c-1.514,2.559-4.822,5.402-8.598,7.785
		c1.391-0.059,2.728,0.293,3.66,1.164c0.811,0.756,1.275,1.742,1.513,2.848c2.669-1.396,5.106-3.951,6.97-7.494
		c0.23-0.467,0.812-0.523,1.048,0c0.229,0.463,0,2.09-0.817,3.6c-1.338,2.498-4.646,4.475-7.086,5.518
		c0,6.219-6.044,14.992-9.704,17.023c-1.161,0.639-2.378,0.988-3.831-0.812c-1.223-1.512-2.732-3.545-1.338-6.797
		c2.149-4.996,6.973-7.846,11.909-9.877C1198.355,316.652,1198.303,315.605,1197.776,314.91z M1188.543,332.57
		c1.046,1.217,7.087-6.916,9.063-12.783C1189.88,324.148,1187.436,331.234,1188.543,332.57z"/>
	<path fill="#2E3192" d="M1217.991,320.195c-3.251,7.783-7.376,17.139-12.197,18.996c-1.104,0.408-2.21,0.408-3.312-1.221
		c-1.161-1.742-2.322-3.775-1.161-7.203c1.743-5.227,6.681-8.715,12.436-10.98c0.579-1.338,1.159-2.787,1.795-4.182
		c-1.795,1.859-4.006,3.369-6.328,3.195c-4.186-0.352-4.302-4.59-2.965-8.424c1.277-3.721,4.127-9.469,7.902-14.698
		c0.465-0.641,1.047-0.58,1.451,0c1.393,1.859,1.047,4.297-1.107,7.729c-2.087,3.367-3.369,5.748-4.471,8.479
		c-1.162,2.848-1.048,4.881,0.291,4.996c2.268,0.176,5.172-3.543,8.132-8.596c2.498-4.299,4.997-9.53,7.031-12.493
		c0.521-0.756,0.931-0.871,1.45-0.406c0.816,1.047,1.277,3.541-0.23,6.506c-1.74,3.369-5.288,10.34-7.728,15.977
		c4.534-2.441,7.958-5.75,10.282-8.943c0.29-0.41,0.816-0.469,0.932,0.113c0.115,0.523-0.061,1.855-1.047,3.369
		C1226.878,316.012,1222.813,318.219,1217.991,320.195z M1203.646,335.996c0.756,1.105,5.517-5.229,9.117-13.768
		C1205.214,326.586,1202.599,334.545,1203.646,335.996z"/>
	<path fill="#2E3192" d="M1257.03,294.572c2.208-0.752,3.604,0.119,4.765,2.561c1.104,2.264,0.93,4.706-1.22,6.795
		c-1.972,1.92-4.417,3.6-8.078,4.707c0.237,4.762,1.863,8.076,4.064,8.309c2.387,0.23,5.58-4.244,7.324-7.844
		c0.349-0.697,0.869-0.754,1.16-0.059c0.29,0.695,0.176,2.094-0.696,3.545c-1.39,2.439-4.064,6.156-8.657,6.1
		c-4.064-0.061-7.491-3.371-7.375-11.213c0-1.045,0.115-1.221,1.221-1.57c7.199-2.381,11.037-7.436,10.165-8.944
		c-0.641-1.047-3.196-0.406-6.275,1.971c-4.354,3.315-6.968,8.428-11.446,19.116c-0.171,0.465-0.636,0.58-1.04,0.119
		c-0.872-0.99-1.161-2.85-0.062-6.393c1.629-5.287,11.273-24.401,16.439-31.428c0.527-0.701,1.107-0.756,1.452-0.061
		c0.872,1.742,0.757,4.064-1.681,8.307c-1.398,2.385-3.663,6.449-5.229,9.297C1253.719,296.085,1255.521,295.099,1257.03,294.572z"
		/>
	<path fill="#2E3192" d="M1283.521,295.621c0.524-0.758,0.99-0.873,1.396-0.348c0.872,1.041,1.336,3.543-0.062,6.446
		c-1.274,2.613-4.179,6.975-5.578,10.053c-1.451,3.254-1.507,5.752,0.467,5.637c2.384-0.117,5.578-4.068,7.612-8.076
		c0.29-0.525,0.696-0.582,0.931-0.061c0.23,0.525,0.23,1.979-0.526,3.604c-1.508,3.195-5.168,6.391-8.361,6.215
		c-3.142-0.176-4.768-2.031-4.768-4.762c-1.857,2.383-4.472,4.531-7.26,4.531c-5.405,0-6.507-7.379-1.685-14.408
		c4.702-6.856,9.296-9.469,12.2-9.469c2.498,0,3.658,1.916,3.544,4.182C1282.182,297.769,1282.882,296.552,1283.521,295.621z
		 M1278.871,298.003c-1.856-0.176-6.098,3.6-9.294,8.772c-3.078,4.996-3.834,10.107-1.567,10.168
		c2.379,0.057,5.404-3.662,8.363-8.773C1280.033,301.779,1280.561,298.179,1278.871,298.003z"/>
	<path fill="#2E3192" d="M1289.733,293.935c-0.582-0.814-0.23-1.221,0.641-1.162c1.629,0.057,3.256-0.059,4.823-0.232
		c1.801-3.195,3.424-5.924,4.416-7.203c0.52-0.756,1.102-0.697,1.392,0c0.642,1.629,0.642,3.543-0.755,6.562
		c2.268-0.055,3.141,0.99,3.604,1.744c0.406,0.699,0.171,1.104-0.703,1.104c-1.274-0.176-3.077,0-4.53,0.234
		c-2.264,3.893-5.573,9.526-7.782,14.407c-1.916,4.242-1.275,7.846,1.164,7.961c2.612,0.115,5.922-4.01,8.071-8.367
		c0.352-0.695,0.992-0.812,1.221,0c0.292,0.93,0,1.979-0.58,3.314c-0.758,1.682-4.587,6.793-9.238,6.617
		c-3.831-0.113-6.912-4.412-4.121-11.092c1.216-2.908,3.659-7.785,6.152-12.377C1291.534,295.445,1290.198,294.572,1289.733,293.935
		z"/>
	<path fill="#2E3192" d="M1316.804,317.174c2.788,0.234,6.855-3.951,9.122-8.424c0.406-0.754,1.044-0.814,1.279,0
		c0.288,0.93,0.054,2.211-0.582,3.602c-0.817,1.742-5.058,6.562-9.705,6.449c-4.005-0.115-6.153-2.904-4.821-9.178
		c2.152-10.111,8.772-20.625,14.702-26.782c0.87-0.932,1.681-1.047,2.493-0.289c1.688,1.504,2.032,3.658,1.337,6.389
		c-1.798,7.145-8.31,14.116-13.477,17.487C1314.83,312.121,1314.188,316.943,1316.804,317.174z M1328.655,287.72
		c-0.756-0.465-5.056,5.982-9.063,13.418c-0.521,0.93-0.986,1.859-1.392,2.789C1326.155,297.478,1329.413,288.183,1328.655,287.72z"
		/>
	<path fill="#2E3192" d="M1324.937,310.438c1.451-4.246,5.286-11.098,7.436-14.124c0.52-0.693,0.931-0.869,1.392-0.344
		c0.87,0.928,1.339,3.426-0.056,6.331c-1.222,2.559-3.661,6.506-4.885,9.414c-1.389,3.367-1.274,5.635,0.584,5.52
		c2.613-0.119,5.81-3.953,7.549-7.963c0.29-0.521,0.702-0.465,0.934,0c0.466,0.93,0.29,2.154-0.405,3.604
		c-1.742,3.6-5.402,6.039-8.661,6.039C1324.416,318.914,1323.309,315.201,1324.937,310.438z M1337.89,295.273
		c-0.758,0.812-2.383,0.639-3.256-0.873c-0.926-1.57-0.636-3.311,0.293-4.299c0.931-0.984,2.612-0.291,3.367,1.279
		C1339.052,292.89,1338.646,294.458,1337.89,295.273z"/>
	<path fill="#2E3192" d="M1340.326,293.82c-0.579-0.754-0.114-1.105,0.759-1.105c1.335,0,2.958,0,4.646-0.059
		c1.743-3.018,3.426-5.633,4.356-6.971c0.581-0.756,1.101-0.756,1.39,0c0.645,1.627,0.645,3.604-0.869,6.74
		c3.08-0.117,6.104-0.352,8.481-0.465c1.744-3.02,3.256-5.574,4.187-6.795c0.582-0.758,1.104-0.643,1.395,0.055
		c0.693,1.57,0.64,3.545-0.758,6.625c2.209,0.176,3.08,1.045,3.601,1.857c0.41,0.697,0.121,1.105-0.751,1.045
		c-0.993-0.057-2.497-0.057-4.355,0c-2.21,4.068-5.755,9.76-7.964,14.641c-1.916,4.299-1.215,7.846,1.164,7.961
		c2.612,0.115,5.868-4.01,8.075-8.367c0.348-0.695,0.988-0.812,1.217,0c0.291,0.93,0,1.979-0.58,3.314
		c-0.752,1.682-4.587,6.793-9.295,6.617c-2.383-0.113-4.472-1.799-5.052-4.76c-1.514,2.148-4.355,4.879-7.903,4.76
		c-3.89-0.113-6.853-4.412-4.124-11.092c1.16-2.85,3.661-7.729,6.159-12.202C1342.132,295.445,1340.91,294.572,1340.326,293.82z
		 M1348.985,295.505c-2.269,3.891-5.403,9.118-7.555,13.883c-1.914,4.242-1.219,7.846,1.221,7.961
		c2.552,0.115,5.983-4.357,7.842-8.656c1.336-3.139,4.188-8.717,6.914-13.711C1354.505,295.154,1351.478,295.388,1348.985,295.505z"
		/>
	<path fill="#2E3192" d="M1391.739,318.914c-4.414-0.229-6.158-4.18-4.707-8.887c1.224-3.891,4.707-8.189,7.207-10.979
		c-2.56,1.627-5.174,2.207-6.977,2.207c-4.817,10.109-11.089,17.43-18.009,17.545c-7.373,0.113-9.873-7.086-6.098-14.521
		c3.661-7.206,9.586-10.459,12.49-8.774c1.451,0.871,2.499,1.684,3.432,2.961c0.983,1.397,0.402,4.823-1.921,7.786
		c-2.727,3.545-6.623,4.998-10.691,1.744c-1.856,5.285-0.406,9.062,2.56,9.178c6.389,0.291,12.779-8.887,15.975-16.266
		c-4.472-1.859,1.221-9.586,3.66-9.704c1.804-0.055,1.22,3.486-0.236,7.262c2.04-0.287,4.072-1.217,6.335-2.73
		c0.696-0.463,1.222-0.754,1.628-0.172c1.161,1.281,2.614,4.065,0.871,5.983c-2.729,3.021-5.694,6.971-6.68,10.107
		c-0.986,3.195-0.289,5.52,1.45,5.58c2.439,0.115,5.405-3.723,7.263-8.018c0.229-0.467,0.641-0.582,0.87-0.061
		c0.29,0.641,0.406,2.15-0.288,3.775C1398.418,316.42,1394.936,319.09,1391.739,318.914z M1373.843,303.873
		c1.863-2.383,3.079-5.407,2.331-6.045c-1.285-1.104-6.046,2.557-8.72,7.905c-0.171,0.291-0.291,0.695-0.461,0.984
		C1369.838,308.459,1372.099,306.076,1373.843,303.873z"/>
</g>
<g>
	<path fill-rule="evenodd" clip-rule="evenodd" fill="#2E3192" d="M984.643,482.717c-0.463,0.185-1.165,0.238-1.451,0.608
		c-1.06,1.375-2.446,2.549-2.978,4.278c-0.242,0.793-0.745,1.315-1.411,1.731c-0.299,0.185-0.628,0.341-0.937,0.52
		c-1.073,0.629-2.231,1.156-3.198,1.928c-1.04,0.827-2.021,1.796-1.613,3.415c0.233,0.931,0.289,1.907,0.439,2.863
		c0.146,0.913,0.621,1.64,1.453,2.025c0.993,0.458,1.998,0.92,3.05,1.179c2.088,0.523,3.823,1.59,5.446,2.958
		c1.019,0.854,2.161,1.523,3.501,1.841c1.468,0.351,2.815,0.167,4.008-0.722c1.811-1.349,3.845-1.992,6.062-2.232
		c0.85-0.093,1.702-0.36,2.499-0.684c1.303-0.532,2.106-2.447,1.784-4.121c-0.47-2.443-1.674-4.421-3.824-5.755
		c-2.426-1.512-4.323-3.646-6.472-5.486c-1.544-1.324-3.191-2.537-4.828-3.752C985.783,483.024,985.238,482.938,984.643,482.717z"/>
	<path fill-rule="evenodd" clip-rule="evenodd" fill="#2E3192" d="M985.858,475.89c0.417-2.247,0.838-4.495,1.249-6.745
		c0.294-1.584,0.026-3.12-0.683-4.529c-0.952-1.895-4.154-2.64-5.921-1.396c-2.107,1.485-3.579,3.468-4.244,5.981
		c-0.118,0.449-0.095,0.981,0.023,1.436c0.438,1.69,0.892,3.379,1.459,5.03c0.162,0.475,0.648,0.935,1.106,1.195
		c1.109,0.635,1.959,1.411,2.612,2.551c0.745,1.304,1.911,1.311,2.954,0.206c0.973-1.033,1.599-2.234,1.645-3.688
		C985.99,475.916,985.924,475.904,985.858,475.89z"/>
	<path fill-rule="evenodd" clip-rule="evenodd" fill="#2E3192" d="M999.242,467.285c0.206-1.737-0.06-2.915-0.682-4.015
		c-1.052-1.865-2.646-3.119-4.637-3.785c-1.769-0.598-3.526,0.343-4.451,2.092c-0.896,1.696-1.034,3.515-0.913,5.355
		c0.139,2.078,0.377,4.151,0.633,6.217c0.052,0.425,0.346,0.841,0.603,1.212c0.276,0.397,0.635,0.729,0.946,1.1
		c0.571,0.687,1.195,0.9,2.042,0.572c1.015-0.396,1.855-1.015,2.454-1.983c0.855-1.381,1.747-2.746,2.73-4.041
		C998.704,469.036,999.166,468.005,999.242,467.285z"/>
	<path fill-rule="evenodd" clip-rule="evenodd" fill="#2E3192" d="M976.801,484.158c0.409-3.987-1.608-6.406-4.086-8.58
		c-1.095-0.958-2.338-1.64-3.841-1.7c-1.403-0.052-2.312,0.692-2.771,2.04c-0.78,2.298-0.193,4.462,0.441,6.66
		c0.5,1.752,1.695,3.044,2.784,4.396c0.352,0.441,0.999,0.749,1.566,0.891c1.699,0.431,3.406,0.208,4.623-1.063
		C976.236,486.048,976.485,484.849,976.801,484.158z"/>
	<path fill-rule="evenodd" clip-rule="evenodd" fill="#2E3192" d="M1001.705,487.29c0.68,0.066,1.356,0.188,2.032,0.179
		c1.728-0.023,2.922-1.102,4.009-2.259c0.68-0.716,0.514-1.676,0.39-2.563c-0.334-2.463-1.463-4.476-3.646-5.72
		c-2.637-1.51-6.234-0.199-7.507,2.569c-0.309,0.674-0.775,1.322-1.309,1.843c-1.197,1.169-1.049,3.446,0.462,4.207
		c1.216,0.607,2.56,0.97,3.855,1.401c0.554,0.182,1.135,0.266,1.703,0.392C1001.697,487.324,1001.702,487.307,1001.705,487.29z"/>
	<path fill-rule="evenodd" clip-rule="evenodd" fill="#3D44AC" d="M993.812,456.729c-0.468,0.668-0.717,1.028,0.175,1.224
		c0.349,0.08,0.57,0.661,0.89,0.968c0.205,0.201,0.472,0.431,0.732,0.458c0.186,0.018,0.556-0.259,0.575-0.438
		c0.038-0.263-0.08-0.658-0.284-0.815C995.255,457.623,994.543,457.207,993.812,456.729z"/>
	<path fill-rule="evenodd" clip-rule="evenodd" fill="#2E3192" d="M1002.49,474.796c0.506,0.509,0.894,0.941,1.325,1.327
		c0.134,0.123,0.49,0.234,0.551,0.164c0.25-0.279,0.427-0.623,0.634-0.945c-0.44-0.276-0.85-0.634-1.328-0.804
		C1003.234,474.378,1002.717,474.398,1002.49,474.796z"/>
	<path fill-rule="evenodd" clip-rule="evenodd" fill="#2E3192" d="M970.685,473.806c0.527-0.688,0.38-1.104-0.337-1.233
		c-0.276-0.05-0.553-0.149-0.826-0.142c-0.277,0.004-0.68,0.03-0.793,0.204c-0.227,0.338-0.587,0.776-0.042,1.215
		C969.319,473.496,969.973,473.053,970.685,473.806z"/>
	<path fill-rule="evenodd" clip-rule="evenodd" fill="#3D44AC" d="M981.904,462.301c0.524-0.116,0.979-0.179,1.407-0.316
		c0.322-0.11,0.755-0.283,0.415-0.741c-0.417-0.57-0.943-0.359-1.428-0.078C981.866,461.428,981.461,461.728,981.904,462.301z"/>
</g>
<g>
	<path fill-rule="evenodd" clip-rule="evenodd" fill="#2B3990" d="M1582.685,457.413c0.401,0.703,0.613,1.081-0.285,1.194
		c-0.349,0.048-0.62,0.598-0.965,0.876c-0.221,0.177-0.509,0.381-0.765,0.383c-0.188,0-0.522-0.307-0.53-0.485
		c-0.007-0.261,0.144-0.646,0.356-0.78C1581.179,458.166,1581.919,457.818,1582.685,457.413z"/>
	<path fill-rule="evenodd" clip-rule="evenodd" fill="#2E3192" d="M1590.566,483.291c0.444,0.225,1.129,0.342,1.38,0.733
		c0.922,1.454,2.181,2.737,2.545,4.493c0.172,0.806,0.622,1.365,1.236,1.833c0.284,0.217,0.59,0.394,0.879,0.602
		c1.004,0.72,2.097,1.345,2.979,2.195c0.954,0.91,1.835,1.958,1.283,3.52c-0.318,0.896-0.455,1.854-0.694,2.784
		c-0.231,0.887-0.765,1.561-1.62,1.865c-1.018,0.357-2.058,0.725-3.114,0.888c-2.112,0.325-3.923,1.222-5.651,2.426
		c-1.08,0.745-2.267,1.304-3.618,1.497c-1.481,0.209-2.795-0.096-3.891-1.08c-1.664-1.497-3.612-2.318-5.78-2.757
		c-0.83-0.171-1.646-0.508-2.404-0.9c-1.236-0.645-1.853-2.609-1.381-4.233c0.685-2.367,2.051-4.21,4.295-5.332
		c2.532-1.267,4.602-3.202,6.888-4.822c1.645-1.169,3.381-2.215,5.106-3.262C1589.42,483.491,1589.96,483.458,1590.566,483.291z"/>
	<path fill-rule="evenodd" clip-rule="evenodd" fill="#2E3192" d="M1589.994,476.442c-0.207-2.258-0.419-4.514-0.622-6.77
		c-0.146-1.596,0.262-3.082,1.086-4.409c1.112-1.785,4.346-2.229,5.973-0.84c1.945,1.657,3.215,3.75,3.645,6.29
		c0.075,0.455,0.004,0.979-0.152,1.414c-0.591,1.63-1.189,3.253-1.899,4.834c-0.204,0.455-0.727,0.859-1.205,1.078
		c-1.146,0.522-2.061,1.216-2.809,2.277c-0.854,1.221-2.007,1.119-2.933-0.064c-0.866-1.107-1.375-2.353-1.288-3.792
		C1589.86,476.455,1589.927,476.45,1589.994,476.442z"/>
	<path fill-rule="evenodd" clip-rule="evenodd" fill="#2E3192" d="M1577.572,466.731c-0.049-1.736,0.324-2.875,1.036-3.902
		c1.205-1.744,2.896-2.835,4.918-3.315c1.801-0.425,3.45,0.664,4.203,2.473c0.729,1.757,0.7,3.562,0.416,5.37
		c-0.328,2.035-0.75,4.061-1.191,6.076c-0.095,0.416-0.423,0.797-0.707,1.144c-0.305,0.362-0.696,0.661-1.035,0.998
		c-0.626,0.622-1.261,0.779-2.066,0.375c-0.97-0.481-1.738-1.169-2.242-2.175c-0.718-1.443-1.473-2.873-2.326-4.239
		C1577.937,468.508,1577.576,467.449,1577.572,466.731z"/>
	<path fill-rule="evenodd" clip-rule="evenodd" fill="#2E3192" d="M1598.177,485.427c-0.038-3.971,2.17-6.171,4.813-8.092
		c1.17-0.847,2.459-1.407,3.949-1.328c1.394,0.076,2.215,0.891,2.549,2.266c0.563,2.338-0.217,4.421-1.039,6.53
		c-0.656,1.688-1.953,2.85-3.153,4.087c-0.387,0.401-1.055,0.646-1.628,0.735c-1.717,0.27-3.38-0.105-4.465-1.475
		C1598.563,487.347,1598.426,486.138,1598.177,485.427z"/>
	<path fill-rule="evenodd" clip-rule="evenodd" fill="#2E3192" d="M1573.312,486.25c-0.674,0-1.354,0.058-2.021-0.013
		c-1.705-0.181-2.781-1.35-3.752-2.591c-0.604-0.77-0.353-1.701-0.154-2.564c0.561-2.4,1.857-4.283,4.123-5.312
		c2.739-1.25,6.171,0.369,7.177,3.218c0.243,0.694,0.643,1.376,1.123,1.938c1.075,1.266,0.725,3.501-0.838,4.11
		c-1.257,0.489-2.615,0.725-3.935,1.029c-0.56,0.135-1.145,0.159-1.714,0.231C1573.315,486.281,1573.315,486.267,1573.312,486.25z"
		/>
	<path fill-rule="evenodd" clip-rule="evenodd" fill="#2E3192" d="M1573.677,473.849c-0.543,0.459-0.968,0.846-1.427,1.188
		c-0.143,0.109-0.505,0.179-0.56,0.109c-0.221-0.297-0.364-0.655-0.539-0.99c0.459-0.232,0.896-0.548,1.383-0.675
		C1572.979,473.366,1573.489,473.433,1573.677,473.849z"/>
	<path fill-rule="evenodd" clip-rule="evenodd" fill="#2E3192" d="M1606.864,475.091c-0.459-0.727-0.276-1.122,0.448-1.186
		c0.275-0.022,0.559-0.097,0.827-0.062c0.271,0.031,0.665,0.089,0.764,0.271c0.192,0.357,0.509,0.82-0.071,1.205
		C1608.24,474.909,1607.634,474.414,1606.864,475.091z"/>
	<path fill-rule="evenodd" clip-rule="evenodd" fill="#2B3990" d="M1596.29,462.609c-0.509-0.162-0.947-0.266-1.358-0.441
		c-0.312-0.138-0.719-0.347-0.341-0.771c0.463-0.521,0.961-0.27,1.414,0.057C1596.407,461.751,1596.782,462.08,1596.29,462.609z"/>
</g>
</svg>
