<?xml version="1.0" encoding="UTF-8"?>
<svg width="18px" height="20px" viewBox="0 0 18 20" version="1.1" xmlns="http://www.w3.org/2000/svg" xmlns:xlink="http://www.w3.org/1999/xlink">
    <!-- Generator: Sketch 41.2 (35397) - http://www.bohemiancoding.com/sketch -->
    <title>paw</title>
    <desc>Created with Sketch.</desc>
    <defs></defs>
    <g id="Page-1" stroke="none" stroke-width="1" fill="none" fill-rule="evenodd">
        <g id="paw">
            <g id="Page-1">
                <g id="kaka_logo">
                    <g id="Group" transform="translate(0.256469, 0.000000)">
                        <path d="M7.59568627,10.4435294 C7.41411765,10.5164706 7.13882353,10.5368627 7.02666667,10.6819608 C6.61098039,11.2215686 6.06745098,11.6819608 5.85882353,12.3596078 C5.76392157,12.6705882 5.56666667,12.8756863 5.30509804,13.0388235 C5.18784314,13.1113725 5.05921569,13.1721569 4.93803922,13.2427451 C4.51686275,13.4894118 4.06313725,13.6960784 3.68392157,13.9988235 C3.27607843,14.3227451 2.89137255,14.7027451 3.05098039,15.3376471 C3.1427451,15.7031373 3.16470588,16.0858824 3.22352941,16.4603922 C3.28078431,16.8188235 3.46666667,17.1035294 3.79294118,17.2545098 C4.1827451,17.4341176 4.57686275,17.6152941 4.98901961,17.7172549 C5.80823529,17.9219608 6.48862745,18.3407843 7.12509804,18.8772549 C7.52470588,19.2121569 7.97254902,19.4741176 8.49803922,19.5992157 C9.07372549,19.7364706 9.60196078,19.6643137 10.0698039,19.3156863 C10.78,18.7870588 11.5776471,18.5345098 12.4470588,18.4403922 C12.7803922,18.4043137 13.1145098,18.2996078 13.4270588,18.1721569 C13.9380392,17.9639216 14.2529412,17.2129412 14.1266667,16.5560784 C13.9423529,15.5980392 13.4701961,14.8223529 12.6270588,14.2996078 C11.6756863,13.7066667 10.9317647,12.8698039 10.0890196,12.1482353 C9.48352941,11.6286275 8.83764706,11.1533333 8.19568627,10.6768627 C8.04313725,10.5643137 7.82941176,10.5309804 7.59568627,10.4435294 Z" id="Shape" fill="#2E3192"></path>
                        <path d="M8.07254902,7.76627451 C8.23607843,6.88509804 8.40117647,6.00352941 8.56235294,5.12117647 C8.67764706,4.5 8.57254902,3.89764706 8.2945098,3.34509804 C7.92117647,2.60196078 6.6654902,2.30980392 5.97254902,2.7972549 C5.14627451,3.38 4.56901961,4.15764706 4.30784314,5.1427451 C4.26196078,5.31960784 4.27098039,5.52784314 4.3172549,5.70588235 C4.48901961,6.36862745 4.66705882,7.03137255 4.88941176,7.67843137 C4.95294118,7.86470588 5.14352941,8.0454902 5.32313725,8.14705882 C5.75803922,8.39607843 6.09137255,8.70078431 6.34745098,9.14823529 C6.63960784,9.65921569 7.09686275,9.66156863 7.50588235,9.22862745 C7.88745098,8.82313725 8.13294118,8.35254902 8.15098039,7.78235294 C8.12431373,7.77686275 8.09803922,7.77176471 8.07254902,7.76627451 Z" id="Shape" fill="#2E3192"></path>
                        <path d="M13.3211765,4.39215686 C13.4019608,3.71058824 13.2976471,3.24901961 13.0537255,2.8172549 C12.6411765,2.08588235 12.0160784,1.5945098 11.2352941,1.33294118 C10.5415686,1.09921569 9.85254902,1.46784314 9.48980392,2.15372549 C9.13843137,2.81921569 9.08431373,3.53215686 9.13176471,4.25411765 C9.18627451,5.06862745 9.27960784,5.88196078 9.38,6.69176471 C9.40039216,6.85843137 9.51568627,7.02117647 9.61647059,7.16705882 C9.72470588,7.32313725 9.8654902,7.45294118 9.98745098,7.59843137 C10.2113725,7.86784314 10.4560784,7.95176471 10.7882353,7.82313725 C11.1862745,7.66784314 11.5156863,7.42509804 11.7505882,7.0454902 C12.0858824,6.50352941 12.4356863,5.96823529 12.8211765,5.46039216 C13.1101961,5.07882353 13.2913725,4.67411765 13.3211765,4.39215686 Z" id="Shape" fill="#2E3192"></path>
                        <path d="M4.52039216,11.0086275 C4.68078431,9.4454902 3.88980392,8.49647059 2.91764706,7.64392157 C2.48862745,7.26823529 2.00078431,7.00078431 1.41176471,6.97686275 C0.861568627,6.95686275 0.505098039,7.24823529 0.325098039,7.7772549 C0.0192156863,8.67843137 0.249411765,9.52705882 0.498039216,10.3894118 C0.694117647,11.0764706 1.1627451,11.5827451 1.58980392,12.1133333 C1.72745098,12.2862745 1.98156863,12.4066667 2.20392157,12.4627451 C2.87019608,12.6317647 3.53960784,12.5439216 4.01686275,12.0458824 C4.29921569,11.7501961 4.39647059,11.28 4.52039216,11.0086275 Z" id="Shape" fill="#2E3192"></path>
                        <path d="M14.2870588,12.2368627 C14.5541176,12.2631373 14.8188235,12.3105882 15.0839216,12.307451 C15.7615686,12.2984314 16.2298039,11.874902 16.6560784,11.4215686 C16.9227451,11.1403922 16.8576471,10.7643137 16.8090196,10.4168627 C16.6780392,9.45019608 16.2352941,8.66039216 15.3792157,8.17333333 C14.345098,7.58117647 12.9345098,8.09529412 12.4352941,9.18039216 C12.3141176,9.44470588 12.1313725,9.69960784 11.9219608,9.90313725 C11.452549,10.3615686 11.5105882,11.2545098 12.1031373,11.5533333 C12.58,11.7913725 13.1070588,11.9333333 13.614902,12.1027451 C13.8321569,12.1741176 14.06,12.2066667 14.2827451,12.2564706 C14.2839216,12.2501961 14.2858824,12.2435294 14.2870588,12.2368627 Z" id="Shape" fill="#2E3192"></path>
                        <path d="M11.1917647,0.252156863 C11.0082353,0.514117647 10.9105882,0.654901961 11.2603922,0.732156863 C11.3972549,0.763529412 11.4839216,0.991372549 11.6094118,1.11176471 C11.6898039,1.19058824 11.7945098,1.28078431 11.8964706,1.29137255 C11.9694118,1.29843137 12.1145098,1.19019608 12.1219608,1.11960784 C12.1368627,1.01647059 12.0905882,0.861176471 12.0105882,0.8 C11.7572549,0.603137255 11.4784314,0.439607843 11.1917647,0.252156863 Z" id="Shape" fill="#3D44AC"></path>
                        <path d="M14.5952941,7.3372549 C14.7933333,7.53686275 14.9454902,7.70666667 15.1145098,7.85764706 C15.1670588,7.90588235 15.3066667,7.94941176 15.3305882,7.92196078 C15.4286275,7.81254902 15.4980392,7.67764706 15.5792157,7.55137255 C15.4066667,7.44313725 15.2458824,7.3027451 15.0584314,7.23607843 C14.8866667,7.17333333 14.6835294,7.18117647 14.5952941,7.3372549 Z" id="Shape" fill="#2E3192"></path>
                        <path d="M2.12196078,6.94862745 C2.32862745,6.67882353 2.27098039,6.51647059 1.98941176,6.4654902 C1.88156863,6.44588235 1.77294118,6.40666667 1.66588235,6.40980392 C1.5572549,6.41137255 1.39921569,6.42156863 1.35490196,6.49019608 C1.26588235,6.62235294 1.12470588,6.7945098 1.33843137,6.96666667 C1.58666667,6.82745098 1.8427451,6.65372549 2.12196078,6.94862745 Z" id="Shape" fill="#2E3192"></path>
                        <path d="M6.52196078,2.4372549 C6.72745098,2.39176471 6.90588235,2.36745098 7.07372549,2.31294118 C7.2,2.26980392 7.36980392,2.20235294 7.23647059,2.02235294 C7.07294118,1.79882353 6.86666667,1.88156863 6.67647059,1.99215686 C6.50705882,2.09490196 6.34823529,2.21254902 6.52196078,2.4372549 Z" id="Shape" fill="#3D44AC"></path>
                    </g>
                </g>
            </g>
        </g>
    </g>
</svg>