<?xml version="1.0" encoding="UTF-8"?>
<svg width="43px" height="51px" viewBox="0 0 43 51" version="1.1" xmlns="http://www.w3.org/2000/svg" xmlns:xlink="http://www.w3.org/1999/xlink">
    <!-- Generator: Sketch 41.2 (35397) - http://www.bohemiancoding.com/sketch -->
    <title>Group</title>
    <desc>Created with Sketch.</desc>
    <defs></defs>
    <g id="Page-1" stroke="none" stroke-width="1" fill="none" fill-rule="evenodd">
        <g id="kaka_logo" transform="translate(-661.000000, -33.000000)">
            <g id="Group" transform="translate(660.653996, 33.000000)">
                <path d="M19.369,26.631 C18.906,26.817 18.204,26.869 17.918,27.239 C16.858,28.615 15.472,29.789 14.94,31.517 C14.698,32.31 14.195,32.833 13.528,33.249 C13.229,33.434 12.901,33.589 12.592,33.769 C11.518,34.398 10.361,34.925 9.394,35.697 C8.354,36.523 7.373,37.492 7.78,39.111 C8.014,40.043 8.07,41.019 8.22,41.974 C8.366,42.888 8.84,43.614 9.672,43.999 C10.666,44.457 11.671,44.919 12.722,45.179 C14.811,45.701 16.546,46.769 18.169,48.137 C19.188,48.991 20.33,49.659 21.67,49.978 C23.138,50.328 24.485,50.144 25.678,49.255 C27.489,47.907 29.523,47.263 31.74,47.023 C32.59,46.931 33.442,46.664 34.239,46.339 C35.542,45.808 36.345,43.893 36.023,42.218 C35.553,39.775 34.349,37.797 32.199,36.464 C29.773,34.952 27.876,32.818 25.727,30.978 C24.183,29.653 22.536,28.441 20.899,27.226 C20.51,26.939 19.965,26.854 19.369,26.631 Z" id="Shape" fill="#2E3192"></path>
                <path d="M20.585,19.804 C21.002,17.557 21.423,15.309 21.834,13.059 C22.128,11.475 21.86,9.939 21.151,8.53 C20.199,6.635 16.997,5.89 15.23,7.133 C13.123,8.619 11.651,10.602 10.985,13.114 C10.868,13.565 10.891,14.096 11.009,14.55 C11.447,16.24 11.901,17.93 12.468,19.58 C12.63,20.055 13.116,20.516 13.574,20.775 C14.683,21.41 15.533,22.187 16.186,23.328 C16.931,24.631 18.097,24.637 19.14,23.533 C20.113,22.499 20.739,21.299 20.785,19.845 C20.717,19.831 20.65,19.818 20.585,19.804 Z" id="Shape" fill="#2E3192"></path>
                <path d="M33.969,11.2 C34.175,9.462 33.909,8.285 33.287,7.184 C32.235,5.319 30.641,4.066 28.65,3.399 C26.881,2.803 25.124,3.743 24.199,5.492 C23.303,7.189 23.165,9.007 23.286,10.848 C23.425,12.925 23.663,14.999 23.919,17.064 C23.971,17.489 24.265,17.904 24.522,18.276 C24.798,18.674 25.157,19.005 25.468,19.376 C26.039,20.063 26.663,20.277 27.51,19.949 C28.525,19.553 29.365,18.934 29.964,17.966 C30.819,16.584 31.711,15.219 32.694,13.924 C33.431,12.951 33.893,11.919 33.969,11.2 Z" id="Shape" fill="#2E3192"></path>
                <path d="M11.527,28.072 C11.936,24.086 9.919,21.666 7.44,19.492 C6.346,18.534 5.102,17.852 3.6,17.791 C2.197,17.74 1.288,18.483 0.829,19.832 C0.049,22.13 0.636,24.294 1.27,26.493 C1.77,28.245 2.965,29.536 4.054,30.889 C4.405,31.33 5.053,31.637 5.62,31.78 C7.319,32.211 9.026,31.987 10.243,30.717 C10.963,29.963 11.211,28.764 11.527,28.072 Z" id="Shape" fill="#2E3192"></path>
                <path d="M36.432,31.204 C37.113,31.271 37.788,31.392 38.464,31.384 C40.192,31.361 41.386,30.281 42.473,29.125 C43.153,28.408 42.987,27.449 42.863,26.563 C42.529,24.098 41.4,22.084 39.217,20.842 C36.58,19.332 32.983,20.643 31.71,23.41 C31.401,24.084 30.935,24.734 30.401,25.253 C29.204,26.422 29.352,28.699 30.863,29.461 C32.079,30.068 33.423,30.43 34.718,30.862 C35.272,31.044 35.853,31.127 36.421,31.254 C36.424,31.238 36.429,31.221 36.432,31.204 Z" id="Shape" fill="#2E3192"></path>
                <path d="M28.539,0.643 C28.071,1.311 27.822,1.67 28.714,1.867 C29.063,1.947 29.284,2.528 29.604,2.835 C29.809,3.036 30.076,3.266 30.336,3.293 C30.522,3.311 30.892,3.035 30.911,2.855 C30.949,2.592 30.831,2.196 30.627,2.04 C29.981,1.538 29.27,1.121 28.539,0.643 Z" id="Shape" fill="#3D44AC"></path>
                <path d="M37.218,18.71 C37.723,19.219 38.111,19.652 38.542,20.037 C38.676,20.16 39.032,20.271 39.093,20.201 C39.343,19.922 39.52,19.578 39.727,19.256 C39.287,18.98 38.877,18.622 38.399,18.452 C37.961,18.292 37.443,18.312 37.218,18.71 Z" id="Shape" fill="#2E3192"></path>
                <path d="M5.411,17.719 C5.938,17.031 5.791,16.617 5.073,16.487 C4.798,16.437 4.521,16.337 4.248,16.345 C3.971,16.349 3.568,16.375 3.455,16.55 C3.228,16.887 2.868,17.326 3.413,17.765 C4.046,17.41 4.699,16.967 5.411,17.719 Z" id="Shape" fill="#2E3192"></path>
                <path d="M16.631,6.215 C17.155,6.099 17.61,6.037 18.038,5.898 C18.36,5.788 18.793,5.616 18.453,5.157 C18.036,4.587 17.51,4.798 17.025,5.08 C16.593,5.342 16.188,5.642 16.631,6.215 Z" id="Shape" fill="#3D44AC"></path>
            </g>
        </g>
    </g>
</svg>